PERFORMER "Armin van Buuren"
TITLE "generic title"
FILE "Armin_Van_Buuren_-_A_State_Of_Trance_714.mp3" MP3
  TRACK 01 AUDIO
    PERFORMER "A State of Trance"
    TITLE "Intro"
    INDEX 01 00:00:00
  TRACK 02 AUDIO
    PERFORMER "Andrew Rayel feat. Jonny Rose"
    TITLE "Daylight"
    INDEX 01 00:57:22
  TRACK 03 AUDIO
    PERFORMER "Above & Beyond"
    TITLE "Hello (Jerome Isma-Ae Remix)"
    INDEX 01 05:44:63
  TRACK 04 AUDIO
    PERFORMER "Ilan Bluestone"
    TITLE "Cloudchaser"
    INDEX 01 08:48:03
  TRACK 05 AUDIO
    PERFORMER "Jenaux feat. Pia Toscano"
    TITLE "Renegades (Willem De Roo Remix)"
    INDEX 01 11:15:22
  TRACK 06 AUDIO
    PERFORMER "Adara"
    TITLE "Chemistry (LTN Remix)"
    INDEX 01 13:53:03
  TRACK 07 AUDIO
    PERFORMER "Spencer Tarring feat. Angelika Vee"
    TITLE "Fall Down (Protoculture Remix)"
    INDEX 01 16:51:15
  TRACK 08 AUDIO
    PERFORMER "Monoverse"
    TITLE "One Way To LA"
    INDEX 01 19:04:33
  TRACK 09 AUDIO
    PERFORMER "Airbase"
    TITLE "Mondegreen"
    INDEX 01 21:47:21
  TRACK 10 AUDIO
    PERFORMER "Jean-Michel Jarre & Tangerine Dream"
    TITLE "Zero Gravity (Above & Beyond Remix) [Tune of the Week]"
    INDEX 01 25:51:16
  TRACK 11 AUDIO
    PERFORMER "Rafael Frost & Maria Nayler"
    TITLE "No Mistakes"
    INDEX 01 30:27:14
  TRACK 12 AUDIO
    PERFORMER "Jason Seizures"
    TITLE "Fat Toddler (Tom Fall Remode)"
    INDEX 01 33:25:74
  TRACK 13 AUDIO
    PERFORMER "Harmonic Rush & Binary Finary"
    TITLE "Rise (Craig Connelly Remix)"
    INDEX 01 35:52:56
  TRACK 14 AUDIO
    PERFORMER "Arisen Flame"
    TITLE "Fireball"
    INDEX 01 39:10:13
  TRACK 15 AUDIO
    PERFORMER "MaRLo"
    TITLE "Atlantis"
    INDEX 01 42:34:14
  TRACK 16 AUDIO
    PERFORMER "Alexander Popov"
    TITLE "Personal Way (Arisen Flame Remix)"
    INDEX 01 45:25:05
  TRACK 17 AUDIO
    PERFORMER "Gareth Emery"
    TITLE "Huracan (Ben Gold Remix)"
    INDEX 01 48:22:06
  TRACK 18 AUDIO
    PERFORMER "Ahmed Romel & Hazem Beltagui"
    TITLE "Nihavent (Tomac Remix) [Future Favorite]"
    INDEX 01 51:29:52
  TRACK 19 AUDIO
    PERFORMER "Grum"
    TITLE "Want U"
    INDEX 01 56:22:12
  TRACK 20 AUDIO
    PERFORMER "Armin van Buuren & Andrew Rayel"
    TITLE "EIFORYA (Alexander Popov Remix)"
    INDEX 01 60:04:11
  TRACK 21 AUDIO
    PERFORMER "Andrew Rayel"
    TITLE "Impulse (Bobina Remix)"
    INDEX 01 63:07:09
  TRACK 22 AUDIO
    PERFORMER "Andrew Rayel"
    TITLE "Rise Of The Era (Digital X Remix)"
    INDEX 01 67:18:24
  TRACK 23 AUDIO
    PERFORMER "Andrew Rayel feat. Sylvia Tosun"
    TITLE "There Are No Words (Faruk Sabanci Remix)"
    INDEX 01 69:46:56
  TRACK 24 AUDIO
    PERFORMER "Andrew Rayel feat. Alexandra Badoi"
    TITLE "Goodbye (Ben Gold Remix)"
    INDEX 01 73:04:19
  TRACK 25 AUDIO
    PERFORMER "Antillas"
    TITLE "Route 66 (Dan Thompson Remix)"
    INDEX 01 77:01:06
  TRACK 26 AUDIO
    PERFORMER "Mohamed Ragab & Mino Safy"
    TITLE "Meronym"
    INDEX 01 81:33:64
  TRACK 27 AUDIO
    PERFORMER "Ultimate & Moonsouls"
    TITLE "U And Us"
    INDEX 01 83:44:11
  TRACK 28 AUDIO
    PERFORMER "Dan Stone"
    TITLE "Radi8"
    INDEX 01 87:59:07
  TRACK 29 AUDIO
    PERFORMER "Pulser"
    TITLE "My Religion (Astuni & Manuel Le Saux Re-Lift)"
    INDEX 01 91:20:05
  TRACK 30 AUDIO
    PERFORMER "Trending Track: Bryn Liedl feat. Bethany Marie"
    TITLE "Statues (Bryan Kearney Remix)"
    INDEX 01 95:16:27
  TRACK 31 AUDIO
    PERFORMER "Bryan Kearney & Will Rees"
    TITLE "Prime Example"
    INDEX 01 98:50:38
  TRACK 32 AUDIO
    PERFORMER "Sam Jones"
    TITLE "Let Loose"
    INDEX 01 100:52:28
  TRACK 33 AUDIO
    PERFORMER "Jase Thirlwall"
    TITLE "Stand By"
    INDEX 01 106:28:04
  TRACK 34 AUDIO
    PERFORMER "Will Rees"
    TITLE "Persistence"
    INDEX 01 109:46:63
  TRACK 35 AUDIO
    PERFORMER "Marcel Woods"
    TITLE "Cherry Blossom [ASOT Radio Classic]"
    INDEX 01 113:46:52
  TRACK 36 AUDIO
    PERFORMER "A State of Trance"
    TITLE "Outro"
    INDEX 01 118:49:07
